<svg xmlns="http://www.w3.org/2000/svg" viewBox="0 0 1100 760"><rect width="1100" height="760" fill="white"/><style>.l{fill:none;stroke:#111;stroke-width:4}.t{font-family:sans-serif;fill:#111}.h{font-size:28px;font-weight:700}.s{font-size:22px}.b{fill:white;stroke:#111;stroke-width:3}</style><text x="35" y="50" class="t h">動物の分類</text><g transform="translate(30 100)"><rect width="190" height="240" rx="16" class="b"/><ellipse cx="95" cy="115" rx="65" ry="35" class="l"/><path d="M30 115 l-30-25 v50z M135 115 l40-25 v50z" class="l"/><circle cx="115" cy="105" r="5"/><text x="58" y="210" class="t s">魚類</text></g><g transform="translate(240 100)"><rect width="190" height="240" rx="16" class="b"/><ellipse cx="95" cy="120" rx="48" ry="35" class="l"/><circle cx="70" cy="85" r="25" class="l"/><circle cx="120" cy="85" r="25" class="l"/><path d="M60 145 l-40 35 M130 145 l40 35 M65 105 l-35-20 M125 105 l35-20" class="l"/><text x="45" y="210" class="t s">両生類</text></g><g transform="translate(450 100)"><rect width="190" height="240" rx="16" class="b"/><ellipse cx="90" cy="120" rx="60" ry="27" class="l"/><path d="M145 120 q45 10 35 50 M65 140 l-35 35 M115 140 l35 35 M65 100 l-35-30 M115 100 l35-30" class="l"/><text x="45" y="210" class="t s">は虫類</text></g><g transform="translate(660 100)"><rect width="190" height="240" rx="16" class="b"/><ellipse cx="100" cy="115" rx="45" ry="60" class="l"/><circle cx="105" cy="70" r="24" class="l"/><path d="M80 115 l-60 35 M120 115 l60 35 M95 175 l-10 20 M115 175 l10 20 M128 70 l35 10" class="l"/><text x="58" y="210" class="t s">鳥類</text></g><g transform="translate(870 100)"><rect width="190" height="240" rx="16" class="b"/><ellipse cx="95" cy="130" rx="55" ry="45" class="l"/><circle cx="135" cy="95" r="28" class="l"/><path d="M125 72 l-10-35 M145 70 l20-32 M55 160 l-10 30 M95 170 v25 M145 155 l10 35" class="l"/><text x="45" y="210" class="t s">哺乳類</text></g><g transform="translate(165 430)"><rect width="310" height="240" rx="16" class="b"/><ellipse cx="150" cy="105" rx="60" ry="45" class="l"/><path d="M95 105 l-55-50 M95 115 l-60 0 M95 125 l-55 50 M205 105 l55-50 M205 115 l60 0 M205 125 l55 50" class="l"/><circle cx="105" cy="80" r="22" class="l"/><circle cx="195" cy="80" r="22" class="l"/><text x="72" y="200" class="t s">節足動物</text></g><g transform="translate(625 430)"><rect width="310" height="240" rx="16" class="b"/><path d="M110 60 q80-35 95 50 q5 70-70 85 q-85 5-80-70 q5-40 55-65" class="l"/><path d="M140 180 q-60 50-80 15 M155 180 q-35 65-55 45 M170 180 q0 70-20 65 M185 180 q35 65 55 45 M200 180 q60 50 80 15" class="l"/><text x="78" y="200" class="t s">軟体動物</text></g></svg>